<svg width="132" height="56" viewBox="0 0 132 56" fill="none" xmlns="http://www.w3.org/2000/svg">
<g opacity="0.5">
<path d="M18.6182 44.1935C12.8415 41.4643 9.60096 37.9061 9.78211 33.782C10.3054 22.1978 37.6589 10.2903 70.6884 7.2982C80.6315 6.38846 89.9707 6.40867 98.1627 7.1769C88.7429 5.80217 77.3708 5.53936 65.0929 6.63106C32.0836 9.62311 4.70994 21.5105 4.20675 33.1148C3.94509 38.8159 10.2048 43.3848 20.5504 46.2354L18.6182 44.1935Z" fill="#3F3F3F"/>
<path d="M16.706 40.3118C14.975 38.553 14.1497 36.6526 14.2504 34.6107C14.7334 23.9161 40.054 12.9587 70.7085 10.1891C75.3982 9.76451 80.0477 9.54213 84.5362 9.54213C92.9093 9.54213 100.759 10.3104 107.24 11.7457L107.341 11.301C100.457 9.50169 91.8626 8.55151 82.463 8.55151C78.0148 8.55151 73.4056 8.77389 68.7561 9.17823C38.2627 11.9681 13.0629 22.9862 12.5798 33.7616C12.4389 36.7132 14.1296 39.3818 17.5513 41.7067L16.706 40.3118Z" fill="#9A9A9A"/>
<path d="M43.4153 41.3833C34.7403 41.3833 27.7761 37.3399 27.7761 31.2952C27.7761 25.2302 34.7403 21.2273 43.4153 21.2273C47.5415 21.2273 51.3255 22.2786 54.083 23.9565L50.6411 26.423C49.1316 25.493 46.8169 24.4215 44.0191 24.4215C40.0137 24.4215 37.4374 26.4836 37.4374 31.275C37.4374 36.0259 40.0137 38.0879 44.0191 38.0879C46.8169 38.0879 49.1316 37.0973 50.6411 36.1471L54.083 38.6136C51.3255 40.332 47.5415 41.3833 43.4153 41.3833Z" fill="#3F3F3F"/>
<path d="M82.5234 40.7567V28.93L75.8209 40.7567H69.9637L62.3555 28.93V40.7567H56.5386V21.834H67.8101L75.0963 33.2159L81.5975 21.834H91.5406V40.7567H82.5234Z" fill="#3F3F3F"/>
<path d="M107.119 41.3833C100.578 41.3833 96.4517 39.1595 94.8616 37.6635L98.3839 35.379C100.115 36.7537 103.839 38.3711 107.119 38.3711C110.038 38.3711 111.467 37.8454 111.467 36.9357C111.467 35.2577 108.025 34.8534 104.503 34.0851C99.2897 32.9328 95.3849 31.5379 95.3849 27.9191C95.3849 23.4512 100.719 21.2678 107.461 21.2678C112.353 21.2678 115.633 22.2382 118.431 24.2397L115.029 26.4028C113.017 24.9877 109.515 24.2397 107.582 24.2397C104.483 24.2397 103.275 24.9068 103.275 25.7963C103.275 27.1711 105.992 27.3126 110.36 28.283C115.774 29.4758 119.82 31.1942 119.82 34.8534C119.8 38.836 114.989 41.3833 107.119 41.3833Z" fill="#3F3F3F"/>
<path d="M26.7496 47.1652C26.7093 47.2865 26.6691 47.428 26.649 47.5493C26.4074 47.6706 26.0854 47.7515 25.7231 47.7515C24.6764 47.7515 24.0525 47.0843 24.0525 46.2352C24.0525 44.9818 24.8979 44.4966 25.864 44.4966C26.186 44.4966 26.5886 44.5977 26.7899 44.719C26.7295 44.8605 26.7093 45.0222 26.6892 45.1839H26.6288C26.4074 44.9009 26.1659 44.7796 25.8439 44.7796C25.3608 44.7796 24.7972 45.2042 24.7972 46.1746C24.7972 47.1045 25.3608 47.4886 25.8841 47.4886C26.1659 47.4886 26.5081 47.3471 26.7093 47.145L26.7496 47.1652Z" fill="#3F3F3F"/>
<path d="M27.2931 45.8108C27.2931 45.3053 27.2729 44.9414 27.2528 44.5371C27.5145 44.5371 27.7963 44.5573 28.0579 44.5573C28.5007 44.5573 28.8832 44.5573 29.0039 44.5371C29.0039 44.5978 28.9838 44.6382 28.9838 44.7393C28.9838 44.8404 29.0039 44.8808 29.0039 44.9414C28.6617 44.9212 28.1183 44.8808 27.9774 44.8808C27.9573 45.2245 27.9573 45.5479 27.9573 45.8714C28.3598 45.8512 28.6416 45.8512 28.9838 45.831C28.9637 45.9321 28.9637 45.9725 28.9637 46.0331C28.9637 46.0736 28.9838 46.1342 28.9838 46.2151C28.6416 46.1949 28.2994 46.1747 27.9573 46.1747C27.9573 46.3566 27.9573 46.5588 27.9573 46.7609C27.9573 46.9631 27.9573 47.1451 27.9774 47.327C28.3196 47.327 28.6617 47.3068 29.024 47.2664C29.024 47.327 29.0039 47.3674 29.0039 47.4685C29.0039 47.5696 29.024 47.61 29.024 47.6707C28.863 47.6707 28.6416 47.6505 28.2391 47.6505C27.4943 47.6505 27.3736 47.6707 27.2729 47.6707C27.2931 47.2664 27.3132 46.9227 27.3132 46.397V45.8108H27.2931Z" fill="#3F3F3F"/>
<path d="M29.6279 44.5371C29.6882 44.5573 29.7688 44.5573 29.8291 44.5573C29.8895 44.5573 29.97 44.5371 30.0304 44.5371C30.6745 45.2649 31.3387 45.9927 32.0029 46.7205C32.0029 45.9927 32.0029 44.7595 31.9627 44.5371C32.0231 44.5573 32.1036 44.5573 32.1639 44.5573C32.2243 44.5573 32.3048 44.5371 32.3652 44.5371C32.2847 45.8714 32.2847 46.4779 32.2847 47.6909C32.2243 47.6707 32.1639 47.6707 32.1036 47.6707C32.0432 47.6707 31.9828 47.6707 31.9224 47.6909C31.2985 46.9429 30.6342 46.2151 29.9298 45.4671C29.9298 45.8108 29.9298 46.1949 29.9298 46.5386C29.9298 47.2664 29.9499 47.5292 29.9499 47.6909C29.8694 47.6707 29.809 47.6707 29.7285 47.6707C29.6681 47.6707 29.5876 47.6707 29.5272 47.6909C29.5473 47.5696 29.6279 46.3768 29.6279 45.4469C29.648 45.0425 29.6279 44.7595 29.6279 44.5371Z" fill="#3F3F3F"/>
<path d="M33.6735 45.2851C33.6735 45.1032 33.6735 44.9414 33.6534 44.8808C33.4722 44.8808 33.0898 44.901 32.8281 44.9414C32.8483 44.8808 32.8483 44.7999 32.8483 44.7393C32.8483 44.6786 32.8281 44.5978 32.8281 44.5371C33.2508 44.5573 33.4521 44.5573 34.0157 44.5573C34.5792 44.5573 34.7805 44.5573 35.1629 44.5371C35.1428 44.5978 35.1428 44.6786 35.1428 44.7393C35.1428 44.7999 35.1629 44.8808 35.1629 44.9414C34.9214 44.901 34.539 44.8808 34.3578 44.8808C34.3578 44.9414 34.3578 45.1032 34.3578 45.2851V46.4173C34.3578 46.9227 34.3578 47.2866 34.3981 47.6909C34.2974 47.6909 34.1767 47.6707 34.0157 47.6707C33.8748 47.6707 33.7339 47.6909 33.6332 47.6909C33.6534 47.2866 33.6735 46.9429 33.6735 46.4173V45.2851Z" fill="#3F3F3F"/>
<path d="M35.6259 45.8108C35.6259 45.3053 35.6058 44.9414 35.5857 44.5371C35.8474 44.5371 36.1291 44.5573 36.3908 44.5573C36.8336 44.5573 37.216 44.5573 37.3368 44.5371C37.3368 44.5978 37.3167 44.6382 37.3167 44.7393C37.3167 44.8404 37.3368 44.8808 37.3368 44.9414C36.9946 44.9212 36.4512 44.8808 36.3103 44.8808C36.2902 45.2245 36.2902 45.5479 36.2902 45.8714C36.6927 45.8512 36.9745 45.8512 37.3167 45.831C37.2965 45.9321 37.2965 45.9725 37.2965 46.0331C37.2965 46.0736 37.3167 46.1342 37.3167 46.2151C36.9745 46.1949 36.6323 46.1747 36.2902 46.1747C36.2902 46.3566 36.2902 46.5588 36.2902 46.7609C36.2902 46.9631 36.2902 47.1451 36.3103 47.327C36.6525 47.327 36.9946 47.3068 37.3569 47.2664C37.3569 47.327 37.3368 47.3674 37.3368 47.4685C37.3368 47.5696 37.3569 47.61 37.3569 47.6707C37.1959 47.6707 36.9745 47.6505 36.5719 47.6505C35.8272 47.6505 35.7065 47.6707 35.6058 47.6707C35.6259 47.2664 35.6461 46.9227 35.6461 46.397V45.8108H35.6259Z" fill="#3F3F3F"/>
<path d="M38.625 44.8001C38.6049 45.2045 38.6049 45.629 38.6049 46.0333C38.6451 46.0333 38.6652 46.0333 38.7055 46.0333C39.1081 46.0333 39.3295 45.811 39.3295 45.3864C39.3295 44.8608 39.1282 44.8001 38.625 44.8001ZM38.6451 46.2355H38.6049V46.4174C38.6049 46.9229 38.6049 47.2868 38.6451 47.6709C38.5445 47.6709 38.4237 47.6507 38.2627 47.6507C38.1218 47.6507 37.9809 47.6709 37.9004 47.6709C37.9205 47.2665 37.9406 46.9229 37.9406 46.4174V45.7907C37.9406 45.2853 37.9205 44.9214 37.9004 44.5171C38.001 44.5373 38.1218 44.5373 38.2627 44.5373C38.4237 44.5373 38.625 44.5171 38.9269 44.5171C39.3898 44.5171 39.5509 44.5575 39.7119 44.6788C39.893 44.8203 40.0138 45.0023 40.0138 45.2853C40.0138 45.7301 39.7521 46.0131 39.3093 46.1344C39.5911 46.6601 39.9534 47.1655 40.2755 47.6911C40.1346 47.6911 39.9937 47.6709 39.8729 47.6709C39.732 47.6709 39.5911 47.6911 39.4502 47.6911L38.6451 46.2355Z" fill="#3F3F3F"/>
<path d="M42.0467 45.1639C41.946 44.9011 41.7649 44.7798 41.5032 44.7798C41.2214 44.7798 41.0403 44.9618 41.0403 45.1841C41.0403 45.8513 42.4291 45.6896 42.4291 46.7206C42.4291 47.3271 41.946 47.7517 41.2214 47.7517C40.8994 47.7517 40.6176 47.6506 40.4968 47.5495C40.5572 47.3473 40.5975 47.1654 40.6377 46.9632H40.7182C40.7585 47.226 40.9799 47.4484 41.3422 47.4484C41.7045 47.4484 41.8655 47.2462 41.8655 46.9834C41.8655 46.2961 40.517 46.478 40.517 45.447C40.517 44.8202 41 44.4766 41.5435 44.4766C41.8655 44.4766 42.107 44.5574 42.2882 44.6989C42.2278 44.8405 42.2077 44.9415 42.1473 45.1437H42.0467V45.1639Z" fill="#3F3F3F"/>
<path d="M44.2204 45.8108C44.2204 45.3053 44.2003 44.9414 44.1802 44.5371C44.4418 44.5371 44.7236 44.5573 44.9853 44.5573C45.4281 44.5573 45.8105 44.5573 45.9313 44.5371C45.9111 44.5978 45.9111 44.6382 45.9111 44.7393C45.9111 44.8404 45.9313 44.8808 45.9313 44.9414C45.5891 44.9212 45.0457 44.8808 44.9048 44.8808C44.8846 45.2245 44.8846 45.5479 44.8846 45.8714C45.2872 45.8512 45.569 45.8512 45.9111 45.831C45.891 45.9321 45.891 45.9725 45.891 46.0331C45.891 46.0736 45.9111 46.1342 45.9111 46.2151C45.569 46.1949 45.2268 46.1747 44.8846 46.1747V46.4173C44.8846 46.9227 44.8846 47.2866 44.9249 47.6909C44.8242 47.6707 44.7035 47.6707 44.5425 47.6707C44.4016 47.6707 44.2607 47.6909 44.16 47.6909C44.1802 47.2866 44.2003 46.9429 44.2003 46.4173V45.8108H44.2204Z" fill="#3F3F3F"/>
<path d="M48.0045 44.7394C47.3805 44.7394 47.0182 45.3661 47.0182 46.1546C47.0182 47.125 47.461 47.4687 47.9642 47.4687C48.5077 47.4687 48.9907 47.0037 48.9907 46.0131C49.0109 45.2246 48.5882 44.7394 48.0045 44.7394ZM48.0246 44.4968C48.9907 44.4968 49.7556 45.0225 49.7556 46.1344C49.7556 47.0441 49.031 47.7719 48.0246 47.7719C47.0585 47.7719 46.2936 47.2867 46.2936 46.1344C46.2735 45.2246 46.978 44.4968 48.0246 44.4968Z" fill="#3F3F3F"/>
<path d="M51.0035 44.8001C50.9834 45.2045 50.9834 45.629 50.9834 46.0333C51.0237 46.0333 51.0438 46.0333 51.084 46.0333C51.4866 46.0333 51.708 45.811 51.708 45.3864C51.708 44.8608 51.4866 44.8001 51.0035 44.8001ZM51.0237 46.2355H50.9834V46.4174C50.9834 46.9229 50.9834 47.2868 51.0237 47.6709C50.923 47.6709 50.8023 47.6507 50.6412 47.6507C50.5003 47.6507 50.3796 47.6709 50.2789 47.6709C50.2991 47.2665 50.3192 46.9229 50.3192 46.4174V45.7907C50.3192 45.2853 50.3192 44.9214 50.2789 44.5171C50.3796 44.5373 50.5003 44.5373 50.6412 44.5373C50.8023 44.5373 51.0035 44.5171 51.3054 44.5171C51.7684 44.5171 51.9294 44.5575 52.0904 44.6788C52.2716 44.8203 52.3923 45.0023 52.3923 45.2853C52.3923 45.7301 52.1307 46.0131 51.6879 46.1344C51.9697 46.6601 52.332 47.1655 52.654 47.6911C52.5131 47.6911 52.3923 47.6709 52.2514 47.6709C52.1105 47.6709 51.9697 47.6911 51.8288 47.6911L51.0237 46.2355Z" fill="#3F3F3F"/>
<path d="M54.707 45.6291C54.6063 46.3165 54.5661 47.0038 54.5258 47.7114C54.4453 47.6912 54.3849 47.6912 54.3044 47.6912C54.2239 47.6912 54.1635 47.6912 54.083 47.7114C54.2642 46.6601 54.4252 45.6089 54.5459 44.5576C54.6063 44.5778 54.6667 44.5778 54.7271 44.5778C54.7875 44.5778 54.8479 44.5576 54.9082 44.5576C55.2303 45.2854 55.6328 46.0941 55.9549 46.741C56.3172 46.0536 56.6795 45.2854 57.0216 44.5576C57.082 44.5778 57.1625 44.5778 57.2229 44.5778C57.2833 44.5778 57.3437 44.5576 57.4041 44.5576C57.5248 45.6089 57.6859 47.0645 57.7865 47.7114C57.6657 47.6912 57.545 47.6912 57.4242 47.6912C57.3034 47.6912 57.1827 47.6912 57.0418 47.7114C57.0015 47.0847 56.9411 46.2962 56.8606 45.5887H56.8405C56.4983 46.2962 56.1562 47.0038 55.8341 47.7114C55.814 47.7114 55.7737 47.7114 55.7536 47.7114C55.7335 47.7114 55.6932 47.7114 55.6731 47.7114C55.3913 47.0038 55.0693 46.3165 54.707 45.6291Z" fill="#3F3F3F"/>
<path d="M58.3501 45.811C58.3501 45.3056 58.3299 44.9417 58.3098 44.5374C58.5715 44.5374 58.8533 44.5576 59.1149 44.5576C59.5577 44.5576 59.9402 44.5576 60.0609 44.5374C60.0609 44.598 60.0408 44.6384 60.0408 44.7395C60.0408 44.8406 60.0609 44.881 60.0609 44.9417C59.7187 44.9215 59.1753 44.881 59.0344 44.881C59.0143 45.2247 59.0143 45.5482 59.0143 45.8717C59.4168 45.8514 59.6986 45.8514 60.0408 45.8312C60.0207 45.9323 60.0207 45.9727 60.0207 46.0334C60.0207 46.0738 60.0408 46.1345 60.0408 46.2153C59.6986 46.1951 59.3565 46.1749 59.0143 46.1749C59.0143 46.3568 59.0143 46.559 59.0143 46.7612C59.0143 46.9633 59.0143 47.1453 59.0344 47.3272C59.3766 47.3272 59.7187 47.307 60.081 47.2666C60.081 47.3272 60.0609 47.3677 60.0609 47.4688C60.0609 47.5698 60.081 47.6103 60.081 47.6709C59.92 47.6709 59.6986 47.6507 59.2961 47.6507C58.5513 47.6507 58.4306 47.6709 58.3299 47.6709C58.3501 47.2666 58.3702 46.9229 58.3702 46.3973V45.811H58.3501Z" fill="#3F3F3F"/>
<path d="M61.3491 46.5388C61.3491 46.7814 61.3491 47.3475 61.3491 47.4283C61.4497 47.4283 61.5705 47.4485 61.7517 47.4485C62.436 47.4485 62.8587 46.9836 62.8587 46.0334C62.8587 45.2854 62.436 44.8204 61.812 44.8204C61.5906 44.8204 61.4699 44.8406 61.329 44.8406C61.329 44.9215 61.329 45.4875 61.329 45.7301V46.5388H61.3491ZM60.6648 45.811C60.6648 45.3056 60.6446 44.9417 60.6245 44.5374C60.7252 44.5374 60.8459 44.5576 61.0069 44.5576C61.2082 44.5576 61.4296 44.5374 61.8322 44.5374C62.8788 44.5374 63.5833 44.8608 63.5833 46.0132C63.5833 47.024 62.8587 47.6709 62.0133 47.6709C61.5504 47.6709 61.2485 47.6507 61.0069 47.6507C60.866 47.6507 60.7252 47.6709 60.6245 47.6709C60.6446 47.2666 60.6648 46.9229 60.6648 46.3973V45.811Z" fill="#3F3F3F"/>
<path d="M64.2274 45.811C64.2274 45.3056 64.2274 44.9417 64.1871 44.5374C64.2878 44.5576 64.4085 44.5576 64.5494 44.5576C64.7105 44.5576 64.8312 44.5374 64.9319 44.5374C64.9117 44.9417 64.8916 45.2854 64.8916 45.811V46.4377C64.8916 46.9431 64.9117 47.307 64.9319 47.7114C64.8312 47.6911 64.7105 47.6911 64.5494 47.6911C64.4085 47.6911 64.2878 47.7114 64.1871 47.7114C64.2073 47.307 64.2274 46.9634 64.2274 46.4377V45.811Z" fill="#3F3F3F"/>
<path d="M68.1725 47.1654C68.1322 47.2867 68.0919 47.4282 68.0718 47.5495C67.8303 47.6708 67.5082 47.7517 67.1459 47.7517C66.0993 47.7517 65.4753 47.0846 65.4753 46.2355C65.4753 44.982 66.3207 44.4968 67.2868 44.4968C67.6089 44.4968 68.0114 44.5979 68.2127 44.7192C68.1523 44.8607 68.1121 45.0225 68.1121 45.1842H68.0316C67.8102 44.9012 67.5686 44.7799 67.2466 44.7799C66.7635 44.7799 66.1999 45.2044 66.1999 46.1748C66.1999 47.1048 66.7635 47.4889 67.2868 47.4889C67.5686 47.4889 67.9108 47.3474 68.1121 47.1452L68.1725 47.1654Z" fill="#3F3F3F"/>
<path d="M70.004 46.4983C69.8832 46.1344 69.7423 45.7705 69.6014 45.4066C69.4404 45.7705 69.2995 46.1142 69.1787 46.4983H70.004ZM71.2116 47.6911C71.0707 47.6709 70.9298 47.6709 70.8091 47.6709C70.6883 47.6709 70.5474 47.6911 70.4266 47.6911C70.326 47.3878 70.2254 47.0644 70.1046 46.7611C69.9033 46.7611 69.7222 46.7611 69.5209 46.7611C69.3599 46.7611 69.1989 46.7611 69.058 46.7611C68.9372 47.0644 68.8366 47.3878 68.756 47.6911C68.6755 47.6709 68.6151 47.6709 68.5346 47.6709C68.4541 47.6709 68.3937 47.6911 68.3132 47.6911C68.5346 47.1857 69.219 45.5684 69.6014 44.5171C69.6618 44.5171 69.7222 44.5373 69.7826 44.5373C69.8429 44.5373 69.9033 44.5171 69.9637 44.5171C70.326 45.5684 70.8493 46.9431 71.2116 47.6911Z" fill="#3F3F3F"/>
<path d="M72.3589 44.8001C72.3387 45.2045 72.3387 45.629 72.3387 46.0333C72.379 46.0333 72.3991 46.0333 72.4394 46.0333C72.8419 46.0333 73.0633 45.811 73.0633 45.3864C73.0633 44.8608 72.8621 44.8001 72.3589 44.8001ZM72.379 46.2355H72.3387V46.4174C72.3387 46.9229 72.3387 47.2868 72.379 47.6709C72.2784 47.6709 72.1576 47.6507 71.9966 47.6507C71.8557 47.6507 71.7349 47.6709 71.6141 47.6709C71.6343 47.2665 71.6544 46.9229 71.6544 46.4174V45.7907C71.6544 45.2853 71.6544 44.9214 71.6141 44.5171C71.7148 44.5373 71.8355 44.5373 71.9966 44.5373C72.1576 44.5373 72.3589 44.5171 72.6608 44.5171C73.1237 44.5171 73.2847 44.5575 73.4458 44.6788C73.6269 44.8203 73.7477 45.0023 73.7477 45.2853C73.7477 45.7301 73.486 46.0131 73.0432 46.1344C73.3451 46.6601 73.6873 47.1655 74.0093 47.6911C73.8684 47.6911 73.7275 47.6709 73.6068 47.6709C73.4659 47.6709 73.325 47.6911 73.2042 47.6911L72.379 46.2355Z" fill="#3F3F3F"/>
<path d="M74.412 45.8108C74.412 45.3053 74.3918 44.9414 74.3717 44.5371C74.6334 44.5371 74.9152 44.5573 75.1768 44.5573C75.6196 44.5573 76.002 44.5573 76.1228 44.5371C76.1228 44.5978 76.1027 44.6382 76.1027 44.7393C76.1027 44.8404 76.1228 44.8808 76.1228 44.9414C75.7806 44.9212 75.2372 44.8808 75.0963 44.8808C75.0762 45.2245 75.0762 45.5479 75.0762 45.8714C75.4787 45.8512 75.7605 45.8512 76.1027 45.831C76.0826 45.9321 76.0826 45.9725 76.0826 46.0331C76.0826 46.0736 76.1027 46.1342 76.1027 46.2151C75.7605 46.1949 75.4183 46.1747 75.0762 46.1747C75.0762 46.3566 75.0762 46.5588 75.0762 46.7609C75.0762 46.9631 75.0762 47.1451 75.0963 47.327C75.4385 47.327 75.7806 47.3068 76.1429 47.2664C76.1429 47.327 76.1228 47.3674 76.1228 47.4685C76.1228 47.5696 76.1429 47.61 76.1429 47.6707C75.9819 47.6707 75.7605 47.6505 75.358 47.6505C74.6132 47.6505 74.4925 47.6707 74.3918 47.6707C74.412 47.2664 74.4321 46.9227 74.4321 46.397V45.8108H74.412Z" fill="#3F3F3F"/>
<path d="M79.1219 45.73C79.2628 45.6087 79.4842 45.3863 79.4842 45.1033C79.4842 44.9011 79.3231 44.7798 79.1621 44.7798C78.981 44.7798 78.8401 44.9011 78.8401 45.1033C78.8401 45.2852 78.9608 45.5278 79.1219 45.73ZM79.0212 47.408C79.2024 47.408 79.3835 47.3473 79.5043 47.226C79.2225 46.9025 78.9608 46.5589 78.6992 46.2152C78.4979 46.3769 78.357 46.5386 78.357 46.761C78.3771 47.0845 78.6187 47.408 79.0212 47.408ZM79.6452 47.3877C79.3835 47.6101 78.981 47.7516 78.6187 47.7516C78.0551 47.7516 77.7532 47.3675 77.7532 47.0238C77.7532 46.5386 78.0752 46.296 78.5784 46.0534C78.3771 45.7906 78.2362 45.548 78.2362 45.3054C78.2362 44.7798 78.679 44.5776 79.0816 44.5776C79.5043 44.5776 79.8263 44.7596 79.8263 45.1437C79.8263 45.4469 79.6452 45.6693 79.2426 45.9119C79.4842 46.2152 79.7056 46.4982 79.9672 46.7812C80.1282 46.5993 80.3295 46.296 80.5107 45.8917C80.5912 45.9928 80.6717 46.0737 80.7522 46.1545C80.5509 46.4578 80.3496 46.7004 80.1282 46.943C80.3295 47.1654 80.5912 47.4686 80.8126 47.6708C80.5912 47.6708 80.4302 47.6506 80.249 47.6506C80.1282 47.6506 80.0075 47.6708 79.8666 47.6708L79.6452 47.3877Z" fill="#3F3F3F"/>
<path d="M82.9058 45.6289C82.8052 46.3162 82.7649 47.0036 82.7247 47.7112C82.6442 47.6909 82.5838 47.6909 82.5033 47.6909C82.4228 47.6909 82.3624 47.6909 82.2819 47.7112C82.463 46.6599 82.624 45.6086 82.7448 44.5574C82.8052 44.5776 82.8656 44.5776 82.9259 44.5776C82.9863 44.5776 83.0467 44.5574 83.1071 44.5574C83.4291 45.2852 83.8317 46.0938 84.1537 46.7408C84.516 46.0534 84.8783 45.2852 85.2205 44.5574C85.2809 44.5776 85.3614 44.5776 85.4218 44.5776C85.4822 44.5776 85.5425 44.5574 85.6231 44.5574C85.7438 45.6086 85.9048 47.0642 86.0055 47.7112C85.8847 47.6909 85.7639 47.6909 85.6432 47.6909C85.5224 47.6909 85.4017 47.6909 85.2608 47.7112C85.2205 47.0844 85.1601 46.296 85.0796 45.5884C84.7374 46.296 84.3953 47.0036 84.0732 47.7112C84.0531 47.7112 84.0128 47.7112 83.9927 47.7112C83.9726 47.7112 83.9323 47.7112 83.9122 47.7112C83.57 47.0036 83.248 46.3162 82.9058 45.6289Z" fill="#3F3F3F"/>
<path d="M86.5288 45.8108C86.5288 45.3053 86.5087 44.9414 86.4885 44.5371C86.7502 44.5371 87.032 44.5573 87.2936 44.5573C87.7364 44.5573 88.1189 44.5573 88.2396 44.5371C88.2396 44.5978 88.2195 44.6382 88.2195 44.7393C88.2195 44.8404 88.2396 44.8808 88.2396 44.9414C87.8975 44.9212 87.354 44.8808 87.2131 44.8808C87.193 45.2245 87.193 45.5479 87.193 45.8714C87.5955 45.8512 87.8773 45.8512 88.2195 45.831C88.1994 45.9321 88.1994 45.9725 88.1994 46.0331C88.1994 46.0736 88.2195 46.1342 88.2195 46.2151C87.8773 46.1949 87.5352 46.1747 87.193 46.1747C87.193 46.3566 87.193 46.5588 87.193 46.7609C87.193 46.9631 87.193 47.1451 87.2131 47.327C87.5553 47.327 87.8975 47.3068 88.2598 47.2664C88.2598 47.327 88.2396 47.3674 88.2396 47.4685C88.2396 47.5696 88.2598 47.61 88.2598 47.6707C88.0987 47.6707 87.8773 47.6505 87.4748 47.6505C86.7301 47.6505 86.6093 47.6707 86.5086 47.6707C86.5288 47.2664 86.5489 46.9227 86.5489 46.397V45.8108H86.5288Z" fill="#3F3F3F"/>
<path d="M89.5278 46.5386C89.5278 46.7812 89.5278 47.3472 89.5278 47.4281C89.6285 47.4281 89.7492 47.4483 89.9304 47.4483C90.6147 47.4483 91.0374 46.9833 91.0374 46.0331C91.0374 45.2851 90.6147 44.8201 89.9908 44.8201C89.7693 44.8201 89.6486 44.8404 89.5077 44.8404C89.5077 44.9212 89.5077 45.4873 89.5077 45.7299V46.5386H89.5278ZM88.8435 45.8108C88.8435 45.3053 88.8234 44.9414 88.8032 44.5371C88.9039 44.5371 89.0246 44.5573 89.1856 44.5573C89.3869 44.5573 89.6083 44.5371 90.0109 44.5371C91.0575 44.5371 91.762 44.8606 91.762 46.0129C91.762 47.0238 91.0374 47.6707 90.192 47.6707C89.7291 47.6707 89.4272 47.6505 89.1856 47.6505C89.0448 47.6505 88.9039 47.6707 88.8032 47.6707C88.8234 47.2664 88.8435 46.9227 88.8435 46.397V45.8108Z" fill="#3F3F3F"/>
<path d="M92.4061 45.811C92.4061 45.3056 92.4061 44.9417 92.3658 44.5374C92.4665 44.5576 92.5873 44.5576 92.7281 44.5576C92.8892 44.5576 93.0099 44.5374 93.1106 44.5374C93.0904 44.9417 93.0703 45.2854 93.0703 45.811V46.4377C93.0703 46.9431 93.0703 47.307 93.1106 47.7114C93.0099 47.6911 92.8892 47.6911 92.7281 47.6911C92.5873 47.6911 92.4665 47.7114 92.3658 47.7114C92.386 47.307 92.4061 46.9634 92.4061 46.4377V45.811Z" fill="#3F3F3F"/>
<path d="M96.3512 47.1654C96.3109 47.2867 96.2707 47.4282 96.2505 47.5495C96.009 47.6708 95.6869 47.7517 95.3247 47.7517C94.278 47.7517 93.6541 47.0846 93.6541 46.2355C93.6541 44.982 94.4994 44.4968 95.4655 44.4968C95.7876 44.4968 96.1901 44.5979 96.3914 44.7192C96.331 44.8607 96.2908 45.0225 96.2908 45.1842H96.2103C95.9889 44.9012 95.7473 44.7799 95.4253 44.7799C94.9422 44.7799 94.3786 45.2044 94.3786 46.1748C94.3786 47.1048 94.9422 47.4889 95.4655 47.4889C95.7473 47.4889 96.0895 47.3474 96.2908 47.1452L96.3512 47.1654Z" fill="#3F3F3F"/>
<path d="M98.1827 46.4983C98.0418 46.1344 97.921 45.7705 97.7801 45.4066C97.6191 45.7705 97.4782 46.1142 97.3574 46.4983H98.1827ZM99.3903 47.6911C99.2494 47.6709 99.1085 47.6709 98.9878 47.6709C98.867 47.6709 98.7261 47.6911 98.6053 47.6911C98.5047 47.3878 98.4041 47.0644 98.2833 46.7611C98.082 46.7611 97.9009 46.7611 97.6996 46.7611C97.5386 46.7611 97.3776 46.7611 97.2367 46.7611C97.1159 47.0644 97.0153 47.3878 96.9348 47.6911C96.8542 47.6709 96.7939 47.6709 96.7133 47.6709C96.6328 47.6709 96.5725 47.6911 96.4919 47.6911C96.7133 47.1857 97.3977 45.5684 97.7801 44.5171C97.8405 44.5171 97.9009 44.5373 97.9411 44.5373C98.0015 44.5373 98.0619 44.5171 98.1223 44.5171C98.5047 45.5684 99.0482 46.9431 99.3903 47.6911Z" fill="#3F3F3F"/>
<path d="M99.8734 45.811C99.8734 45.3056 99.8533 44.9417 99.8331 44.5374C99.9338 44.5576 100.055 44.5576 100.216 44.5576C100.377 44.5576 100.497 44.5374 100.598 44.5374C100.578 44.9417 100.558 45.2854 100.558 45.811V46.4377C100.558 46.9431 100.558 47.307 100.598 47.7114C100.497 47.6911 100.377 47.6911 100.216 47.6911C100.075 47.6911 99.9338 47.7114 99.8331 47.7114C99.8533 47.307 99.8734 46.9634 99.8734 46.4377V45.811Z" fill="#3F3F3F"/>
<path d="M102.047 46.5386C102.047 46.7812 102.047 47.3472 102.047 47.4281C102.128 47.4281 102.269 47.4483 102.45 47.4483C103.134 47.4483 103.557 46.9833 103.557 46.0331C103.557 45.2851 103.134 44.8201 102.51 44.8201C102.289 44.8201 102.188 44.8404 102.047 44.8404C102.047 44.9212 102.047 45.4873 102.047 45.7299V46.5386ZM101.363 45.8108C101.363 45.3053 101.363 44.9414 101.323 44.5371C101.423 44.5371 101.544 44.5573 101.705 44.5573C101.906 44.5573 102.128 44.5371 102.53 44.5371C103.577 44.5371 104.281 44.8606 104.281 46.0129C104.281 47.0238 103.557 47.6707 102.711 47.6707C102.249 47.6707 101.947 47.6505 101.705 47.6505C101.544 47.6505 101.423 47.6707 101.323 47.6707C101.343 47.2664 101.363 46.9227 101.363 46.397V45.8108Z" fill="#3F3F3F"/>
<path d="M107.502 45.1639C107.401 44.9011 107.22 44.7798 106.958 44.7798C106.677 44.7798 106.475 44.9618 106.475 45.1841C106.475 45.8513 107.864 45.6896 107.864 46.7206C107.864 47.3271 107.381 47.7517 106.656 47.7517C106.334 47.7517 106.053 47.6506 105.932 47.5495C105.992 47.3473 106.033 47.1654 106.073 46.9632H106.153C106.194 47.226 106.415 47.4484 106.777 47.4484C107.119 47.4484 107.301 47.2462 107.301 46.9834C107.301 46.2961 105.952 46.478 105.952 45.447C105.952 44.8202 106.435 44.4766 106.979 44.4766C107.301 44.4766 107.542 44.5574 107.723 44.6989C107.663 44.8405 107.643 44.9415 107.582 45.1437H107.502V45.1639Z" fill="#3F3F3F"/>
<path d="M108.408 45.811C108.408 45.3056 108.387 44.9417 108.367 44.5374C108.629 44.5374 108.911 44.5576 109.172 44.5576C109.615 44.5576 109.998 44.5576 110.118 44.5374C110.118 44.598 110.098 44.6384 110.098 44.7395C110.098 44.8406 110.118 44.881 110.118 44.9417C109.776 44.9215 109.233 44.881 109.092 44.881C109.072 45.2247 109.072 45.5482 109.072 45.8717C109.474 45.8514 109.756 45.8514 110.098 45.8312C110.078 45.9323 110.078 45.9727 110.078 46.0334C110.078 46.0738 110.098 46.1345 110.098 46.2153C109.756 46.1951 109.414 46.1749 109.072 46.1749C109.072 46.3568 109.072 46.559 109.072 46.7612C109.072 46.9633 109.072 47.1453 109.092 47.3272C109.434 47.3272 109.776 47.307 110.139 47.2666C110.139 47.3272 110.118 47.3677 110.118 47.4688C110.118 47.5698 110.139 47.6103 110.139 47.6709C109.978 47.6709 109.756 47.6507 109.354 47.6507C108.609 47.6507 108.488 47.6709 108.387 47.6709C108.408 47.2666 108.428 46.9229 108.428 46.3973V45.811H108.408Z" fill="#3F3F3F"/>
<path d="M111.407 44.8001C111.386 45.2045 111.386 45.629 111.386 46.0333C111.427 46.0333 111.447 46.0333 111.487 46.0333C111.89 46.0333 112.111 45.811 112.111 45.3864C112.111 44.8608 111.89 44.8001 111.407 44.8001ZM111.427 46.2355H111.386V46.4174C111.386 46.9229 111.386 47.2868 111.427 47.6709C111.326 47.6709 111.205 47.6507 111.044 47.6507C110.903 47.6507 110.783 47.6709 110.662 47.6709C110.682 47.2665 110.702 46.9229 110.702 46.4174V45.7907C110.702 45.2853 110.682 44.9214 110.662 44.5171C110.763 44.5373 110.883 44.5373 111.044 44.5373C111.205 44.5373 111.407 44.5171 111.709 44.5171C112.171 44.5171 112.332 44.5575 112.493 44.6788C112.675 44.8203 112.795 45.0023 112.795 45.2853C112.795 45.7301 112.534 46.0131 112.091 46.1344C112.393 46.6601 112.735 47.1655 113.057 47.6911C112.916 47.6911 112.795 47.6709 112.655 47.6709C112.514 47.6709 112.373 47.6911 112.252 47.6911L111.427 46.2355Z" fill="#3F3F3F"/>
<path d="M115.573 44.5374C115.633 44.5576 115.714 44.5576 115.774 44.5576C115.835 44.5576 115.915 44.5374 115.976 44.5374C115.674 45.2449 115.09 46.6399 114.728 47.6911C114.667 47.6911 114.587 47.6709 114.526 47.6709C114.466 47.6709 114.385 47.6911 114.325 47.6911C114.043 46.9027 113.399 45.2449 113.097 44.5374C113.238 44.5576 113.379 44.5576 113.5 44.5576C113.621 44.5576 113.762 44.5374 113.902 44.5374C114.104 45.2247 114.426 46.0738 114.708 46.8218C115.03 46.0738 115.331 45.2449 115.573 44.5374Z" fill="#3F3F3F"/>
<path d="M116.459 45.8108C116.459 45.3053 116.438 44.9414 116.418 44.5371C116.519 44.5573 116.64 44.5573 116.801 44.5573C116.962 44.5573 117.062 44.5371 117.183 44.5371C117.163 44.9414 117.143 45.2851 117.143 45.8108V46.4375C117.143 46.9429 117.143 47.3068 117.183 47.7111C117.083 47.6909 116.962 47.6909 116.801 47.6909C116.66 47.6909 116.519 47.7111 116.418 47.7111C116.438 47.3068 116.459 46.9631 116.459 46.4375V45.8108Z" fill="#3F3F3F"/>
<path d="M120.404 47.1654C120.363 47.2867 120.323 47.4282 120.303 47.5495C120.061 47.6708 119.739 47.7517 119.377 47.7517C118.33 47.7517 117.707 47.0846 117.707 46.2355C117.707 44.982 118.552 44.4968 119.518 44.4968C119.84 44.4968 120.243 44.5979 120.444 44.7192C120.384 44.8607 120.363 45.0225 120.343 45.1842H120.283C120.061 44.9012 119.82 44.7799 119.498 44.7799C119.015 44.7799 118.471 45.2044 118.471 46.1748C118.471 47.1048 119.015 47.4889 119.538 47.4889C119.82 47.4889 120.162 47.3474 120.363 47.1452L120.404 47.1654Z" fill="#3F3F3F"/>
<path d="M120.947 45.8108C120.947 45.3053 120.927 44.9414 120.907 44.5371C121.169 44.5371 121.45 44.5573 121.712 44.5573C122.155 44.5573 122.537 44.5573 122.658 44.5371C122.638 44.5978 122.638 44.6382 122.638 44.7393C122.638 44.8404 122.658 44.8808 122.658 44.9414C122.316 44.9212 121.772 44.8808 121.631 44.8808C121.611 45.2245 121.611 45.5479 121.611 45.8714C122.014 45.8512 122.296 45.8512 122.638 45.831C122.618 45.9321 122.618 45.9725 122.618 46.0331C122.618 46.0736 122.618 46.1342 122.638 46.2151C122.296 46.1949 121.953 46.1747 121.611 46.1747C121.611 46.3566 121.611 46.5588 121.611 46.7609C121.611 46.9631 121.611 47.1451 121.631 47.327C121.974 47.327 122.316 47.3068 122.678 47.2664C122.658 47.327 122.658 47.3674 122.658 47.4685C122.658 47.5696 122.678 47.61 122.678 47.6707C122.517 47.6707 122.296 47.6505 121.873 47.6505C121.128 47.6505 121.007 47.6707 120.907 47.6707C120.927 47.2664 120.947 46.9227 120.947 46.397V45.8108Z" fill="#3F3F3F"/>
<path d="M124.59 45.1639C124.489 44.9011 124.308 44.7798 124.047 44.7798C123.765 44.7798 123.584 44.9618 123.584 45.1841C123.584 45.8513 124.973 45.6896 124.973 46.7206C124.973 47.3271 124.489 47.7517 123.765 47.7517C123.443 47.7517 123.161 47.6506 123.04 47.5495C123.101 47.3473 123.141 47.1654 123.181 46.9632H123.262C123.302 47.226 123.523 47.4484 123.886 47.4484C124.248 47.4484 124.409 47.2462 124.409 46.9834C124.409 46.2961 123.06 46.478 123.06 45.447C123.06 44.8202 123.543 44.4766 124.087 44.4766C124.409 44.4766 124.651 44.5574 124.832 44.6989C124.771 44.8405 124.751 44.9415 124.691 45.1437H124.59V45.1639Z" fill="#3F3F3F"/>
</g>
</svg>
