<svg width="451" height="276" viewBox="0 0 451 276" fill="none" xmlns="http://www.w3.org/2000/svg">
<path d="M156.943 269.456V262.913H170.016V276H156.943V269.456ZM172.643 269.456V262.913H185.715V276H172.643V269.456ZM188.342 269.456V262.913H201.414V276H188.342V269.456ZM204.041 269.456V262.913H217.114V276H204.041V269.456ZM219.741 269.456V262.913H232.813V276H219.741V269.456ZM235.44 269.456V262.913H248.512V276H235.44V269.456ZM251.139 269.456V262.913H264.212V276H251.139V269.456ZM266.839 269.456V262.913H279.911V276H266.839V269.456ZM282.538 269.456V262.913H295.61V276H282.538V269.456ZM298.237 269.456V262.913H311.31V276H298.237V269.456ZM313.937 269.456V262.913H327.009V276H313.937V269.456ZM329.636 269.456V262.913H342.708V276H329.636V269.456ZM17.8487 269.456V265.002H26.748V273.911H17.8487V269.456ZM33.5481 269.456V265.002H42.4473V273.911H33.5481V269.456ZM49.2474 269.456V265.002H58.1467V273.911H49.2474V269.456ZM64.9468 269.456V265.002H73.846V273.911H64.9468V269.456ZM80.6461 269.456V265.002H89.5454V273.911H80.6461V269.456ZM96.3455 269.456V265.002H105.245V273.911H96.3455V269.456ZM112.045 269.456V265.002H120.944V273.911H112.045V269.456ZM127.744 269.456V265.002H136.643V273.911H127.744V269.456ZM143.444 269.456V265.002H152.343V273.911H143.444V269.456ZM347.46 269.456V265.002H356.359V273.911H347.46V269.456ZM363.159 269.456V265.002H372.058V273.911H363.159V269.456ZM4.29878 269.456V267.103H9.01236V271.822H4.29878V269.469V269.456ZM0.113126 253.739V247.196H13.1854V260.283H0V253.739H0.113126ZM15.8125 253.739V247.196H28.8848V260.283H15.8125V253.739ZM31.5118 253.739V247.196H44.5841V260.283H31.5118V253.739ZM47.2112 253.739V247.196H60.2835V260.283H47.2112V253.739ZM62.9105 253.739V247.196H75.9828V260.283H62.9105V253.739ZM78.6099 253.739V247.196H91.6822V260.283H78.6099V253.739ZM94.3092 253.739V247.196H107.382V260.283H94.3092V253.739ZM110.009 253.739V247.196H123.081V260.283H110.009V253.739ZM125.708 253.739V247.196H138.78V260.283H125.708V253.739ZM141.407 253.739V247.196H154.48V260.283H141.407V253.739ZM157.107 253.739V247.196H170.179V260.283H157.107V253.739ZM172.806 253.739V247.196H185.878V260.283H172.806V253.739ZM188.505 253.739V247.196H201.578V260.283H188.505V253.739ZM204.205 253.739V247.196H217.277V260.283H204.205V253.739ZM219.904 253.739V247.196H232.976V260.283H219.904V253.739ZM235.603 253.739V247.196H248.676V260.283H235.603V253.739ZM251.303 253.739V247.196H264.375V260.283H251.303V253.739ZM267.002 253.739V247.196H280.074V260.283H267.002V253.739ZM282.701 253.739V247.196H295.774V260.283H282.701V253.739ZM298.401 253.739V247.196H311.473V260.283H298.401V253.739ZM314.1 253.739V247.196H327.172V260.283H314.1V253.739ZM329.799 253.739V247.196H342.872V260.283H329.799V253.739ZM345.499 253.739V247.196H358.571V260.283H345.499V253.739ZM361.198 253.739V247.196H374.27V260.283H361.198V253.739ZM376.897 253.739V247.196H389.97V260.283H376.897V253.739ZM392.597 253.739V247.196H405.669V260.283H392.597V253.739ZM410.383 253.739V249.285H419.282V258.194H410.383V253.739ZM0 238.035V231.491H13.0723V244.578H0V238.035ZM15.6993 238.035V231.491H28.7717V244.578H15.6993V238.035ZM31.3987 238.035V231.491H44.471V244.578H31.3987V238.035ZM47.098 238.035V231.491H60.1704V244.578H47.098V238.035ZM62.7974 238.035V231.491H75.8697V244.578H62.7974V238.035ZM78.4967 238.035V231.491H91.5691V244.578H78.4967V238.035ZM94.1961 238.035V231.491H107.268V244.578H94.1961V238.035ZM109.895 238.035V231.491H122.968V244.578H109.895V238.035ZM125.595 238.035V231.491H138.667V244.578H125.595V238.035ZM141.294 238.035V231.491H154.366V244.578H141.294V238.035ZM156.993 238.035V231.491H170.066V244.578H156.993V238.035ZM172.693 238.035V231.491H185.765V244.578H172.693V238.035ZM188.392 238.035V231.491H201.464V244.578H188.392V238.035ZM204.092 238.035V231.491H217.164V244.578H204.092V238.035ZM219.791 238.035V231.491H232.863V244.578H219.791V238.035ZM235.49 238.035V231.491H248.563V244.578H235.49V238.035ZM251.19 238.035V231.491H264.262V244.578H251.19V238.035ZM266.889 238.035V231.491H279.961V244.578H266.889V238.035ZM282.588 238.035V231.491H295.661V244.578H282.588V238.035ZM298.288 238.035V231.491H311.36V244.578H298.288V238.035ZM313.987 238.035V231.491H327.059V244.578H313.987V238.035ZM329.686 238.035V231.491H342.759V244.578H329.686V238.035ZM345.386 238.035V231.491H358.458V244.578H345.386V238.035ZM361.085 238.035V231.491H374.157V244.578H361.085V238.035ZM376.784 238.035V231.491H389.857V244.578H376.784V238.035ZM392.484 238.035V231.491H405.556V244.578H392.484V238.035ZM408.183 238.035V231.491H421.255V244.578H408.183V238.035ZM425.969 238.035V233.58H434.868V242.489H425.969V238.035ZM443.755 238.035V235.682H448.468V240.4H443.755V238.047V238.035ZM0 222.318V215.774H13.0723V228.861H0V222.318ZM15.6993 222.318V215.774H28.7717V228.861H15.6993V222.318ZM31.3987 222.318V215.774H44.471V228.861H31.3987V222.318ZM47.098 222.318V215.774H60.1704V228.861H47.098V222.318ZM62.7974 222.318V215.774H75.8697V228.861H62.7974V222.318ZM78.4967 222.318V215.774H91.5691V228.861H78.4967V222.318ZM94.1961 222.318V215.774H107.268V228.861H94.1961V222.318ZM109.895 222.318V215.774H122.968V228.861H109.895V222.318ZM125.595 222.318V215.774H138.667V228.861H125.595V222.318ZM141.294 222.318V215.774H154.366V228.861H141.294V222.318ZM156.993 222.318V215.774H170.066V228.861H156.993V222.318ZM172.693 222.318V215.774H185.765V228.861H172.693V222.318ZM188.392 222.318V215.774H201.464V228.861H188.392V222.318ZM204.092 222.318V215.774H217.164V228.861H204.092V222.318ZM219.791 222.318V215.774H232.863V228.861H219.791V222.318ZM235.49 222.318V215.774H248.563V228.861H235.49V222.318ZM251.19 222.318V215.774H264.262V228.861H251.19V222.318ZM266.889 222.318V215.774H279.961V228.861H266.889V222.318ZM282.588 222.318V215.774H295.661V228.861H282.588V222.318ZM298.288 222.318V215.774H311.36V228.861H298.288V222.318ZM313.987 222.318V215.774H327.059V228.861H313.987V222.318ZM329.686 222.318V215.774H342.759V228.861H329.686V222.318ZM345.386 222.318V215.774H358.458V228.861H345.386V222.318ZM361.085 222.318V215.774H374.157V228.861H361.085V222.318ZM376.784 222.318V215.774H389.857V228.861H376.784V222.318ZM392.484 222.318V215.774H405.556V228.861H392.484V222.318ZM408.183 222.318V215.774H421.255V228.861H408.183V222.318ZM423.882 222.318V215.774H436.955V228.861H423.882V222.318ZM441.668 222.318V217.863H450.568V226.772H441.668V222.318ZM0 206.613V200.069H13.0723V213.157H0V206.613ZM15.6993 206.613V200.069H28.7717V213.157H15.6993V206.613ZM31.3987 206.613V200.069H44.471V213.157H31.3987V206.613ZM47.098 206.613V200.069H60.1704V213.157H47.098V206.613ZM62.7974 206.613V200.069H75.8697V213.157H62.7974V206.613ZM78.4967 206.613V200.069H91.5691V213.157H78.4967V206.613ZM94.1961 206.613V200.069H107.268V213.157H94.1961V206.613ZM109.895 206.613V200.069H122.968V213.157H109.895V206.613ZM125.595 206.613V200.069H138.667V213.157H125.595V206.613ZM141.294 206.613V200.069H154.366V213.157H141.294V206.613ZM156.993 206.613V200.069H170.066V213.157H156.993V206.613ZM172.693 206.613V200.069H185.765V213.157H172.693V206.613ZM188.392 206.613V200.069H201.464V213.157H188.392V206.613ZM204.092 206.613V200.069H217.164V213.157H204.092V206.613ZM219.791 206.613V200.069H232.863V213.157H219.791V206.613ZM235.49 206.613V200.069H248.563V213.157H235.49V206.613ZM251.19 206.613V200.069H264.262V213.157H251.19V206.613ZM266.889 206.613V200.069H279.961V213.157H266.889V206.613ZM282.588 206.613V200.069H295.661V213.157H282.588V206.613ZM298.288 206.613V200.069H311.36V213.157H298.288V206.613ZM313.987 206.613V200.069H327.059V213.157H313.987V206.613ZM329.686 206.613V200.069H342.759V213.157H329.686V206.613ZM345.386 206.613V200.069H358.458V213.157H345.386V206.613ZM361.085 206.613V200.069H374.157V213.157H361.085V206.613ZM376.784 206.613V200.069H389.857V213.157H376.784V206.613ZM392.484 206.613V200.069H405.556V213.157H392.484V206.613ZM408.183 206.613V200.069H421.255V213.157H408.183V206.613ZM423.882 206.613V200.069H436.955V213.157H423.882V206.613ZM443.767 206.613V204.26H448.481V208.979H443.767V206.626V206.613ZM0 190.896V184.352H13.0723V197.439H0V190.896ZM15.6993 190.896V184.352H28.7717V197.439H15.6993V190.896ZM31.3987 190.896V184.352H44.471V197.439H31.3987V190.896ZM47.098 190.896V184.352H60.1704V197.439H47.098V190.896ZM62.7974 190.896V184.352H75.8697V197.439H62.7974V190.896ZM78.4967 190.896V184.352H91.5691V197.439H78.4967V190.896ZM94.1961 190.896V184.352H107.268V197.439H94.1961V190.896ZM109.895 190.896V184.352H122.968V197.439H109.895V190.896ZM125.595 190.896V184.352H138.667V197.439H125.595V190.896ZM141.294 190.896V184.352H154.366V197.439H141.294V190.896ZM156.993 190.896V184.352H170.066V197.439H156.993V190.896ZM172.693 190.896V184.352H185.765V197.439H172.693V190.896ZM188.392 190.896V184.352H201.464V197.439H188.392V190.896ZM204.092 190.896V184.352H217.164V197.439H204.092V190.896ZM219.791 190.896V184.352H232.863V197.439H219.791V190.896ZM235.49 190.896V184.352H248.563V197.439H235.49V190.896ZM251.19 190.896V184.352H264.262V197.439H251.19V190.896ZM266.889 190.896V184.352H279.961V197.439H266.889V190.896ZM282.588 190.896V184.352H295.661V197.439H282.588V190.896ZM298.288 190.896V184.352H311.36V197.439H298.288V190.896ZM313.987 190.896V184.352H327.059V197.439H313.987V190.896ZM329.686 190.896V184.352H342.759V197.439H329.686V190.896ZM345.386 190.896V184.352H358.458V197.439H345.386V190.896ZM361.085 190.896V184.352H374.157V197.439H361.085V190.896ZM376.784 190.896V184.352H389.857V197.439H376.784V190.896ZM392.484 190.896V184.352H405.556V197.439H392.484V190.896ZM408.183 190.896V184.352H421.255V197.439H408.183V190.896ZM428.068 190.896V188.543H432.782V193.262H428.068V190.909V190.896ZM0 175.179V168.635H13.0723V181.722H0V175.179ZM15.6993 175.179V168.635H28.7717V181.722H15.6993V175.179ZM31.3987 175.179V168.635H44.471V181.722H31.3987V175.179ZM47.098 175.179V168.635H60.1704V181.722H47.098V175.179ZM62.7974 175.179V168.635H75.8697V181.722H62.7974V175.179ZM78.4967 175.179V168.635H91.5691V181.722H78.4967V175.179ZM94.1961 175.179V168.635H107.268V181.722H94.1961V175.179ZM109.895 175.179V168.635H122.968V181.722H109.895V175.179ZM125.595 175.179V168.635H138.667V181.722H125.595V175.179ZM141.294 175.179V168.635H154.366V181.722H141.294V175.179ZM156.993 175.179V168.635H170.066V181.722H156.993V175.179ZM172.693 175.179V168.635H185.765V181.722H172.693V175.179ZM188.392 175.179V168.635H201.464V181.722H188.392V175.179ZM204.092 175.179V168.635H217.164V181.722H204.092V175.179ZM219.791 175.179V168.635H232.863V181.722H219.791V175.179ZM235.49 175.179V168.635H248.563V181.722H235.49V175.179ZM251.19 175.179V168.635H264.262V181.722H251.19V175.179ZM266.889 175.179V168.635H279.961V181.722H266.889V175.179ZM282.588 175.179V168.635H295.661V181.722H282.588V175.179ZM298.288 175.179V168.635H311.36V181.722H298.288V175.179ZM313.987 175.179V168.635H327.059V181.722H313.987V175.179ZM329.686 175.179V168.635H342.759V181.722H329.686V175.179ZM345.386 175.179V168.635H358.458V181.722H345.386V175.179ZM361.085 175.179V168.635H374.157V181.722H361.085V175.179ZM376.784 175.179V168.635H389.857V181.722H376.784V175.179ZM392.484 175.179V168.635H405.556V181.722H392.484V175.179ZM410.27 175.179V170.724H419.169V179.633H410.27V175.179ZM0 159.474V152.931H13.0723V166.018H0V159.474ZM15.6993 159.474V152.931H28.7717V166.018H15.6993V159.474ZM31.3987 159.474V152.931H44.471V166.018H31.3987V159.474ZM47.098 159.474V152.931H60.1704V166.018H47.098V159.474ZM62.7974 159.474V152.931H75.8697V166.018H62.7974V159.474ZM78.4967 159.474V152.931H91.5691V166.018H78.4967V159.474ZM94.1961 159.474V152.931H107.268V166.018H94.1961V159.474ZM109.895 159.474V152.931H122.968V166.018H109.895V159.474ZM125.595 159.474V152.931H138.667V166.018H125.595V159.474ZM141.294 159.474V152.931H154.366V166.018H141.294V159.474ZM156.993 159.474V152.931H170.066V166.018H156.993V159.474ZM172.693 159.474V152.931H185.765V166.018H172.693V159.474ZM188.392 159.474V152.931H201.464V166.018H188.392V159.474ZM204.092 159.474V152.931H217.164V166.018H204.092V159.474ZM219.791 159.474V152.931H232.863V166.018H219.791V159.474ZM235.49 159.474V152.931H248.563V166.018H235.49V159.474ZM251.19 159.474V152.931H264.262V166.018H251.19V159.474ZM266.889 159.474V152.931H279.961V166.018H266.889V159.474ZM282.588 159.474V152.931H295.661V166.018H282.588V159.474ZM298.288 159.474V152.931H311.36V166.018H298.288V159.474ZM313.987 159.474V152.931H327.059V166.018H313.987V159.474ZM329.686 159.474V152.931H342.759V166.018H329.686V159.474ZM345.386 159.474V152.931H358.458V166.018H345.386V159.474ZM361.085 159.474V152.931H374.157V166.018H361.085V159.474ZM376.784 159.474V152.931H389.857V166.018H376.784V159.474ZM392.484 159.474V152.931H405.556V166.018H392.484V159.474ZM408.183 159.474V152.931H421.255V166.018H408.183V159.474ZM0 143.757V137.214H13.0723V150.301H0V143.757ZM15.6993 143.757V137.214H28.7717V150.301H15.6993V143.757ZM31.3987 143.757V137.214H44.471V150.301H31.3987V143.757ZM47.098 143.757V137.214H60.1704V150.301H47.098V143.757ZM62.7974 143.757V137.214H75.8697V150.301H62.7974V143.757ZM78.4967 143.757V137.214H91.5691V150.301H78.4967V143.757ZM94.1961 143.757V137.214H107.268V150.301H94.1961V143.757ZM109.895 143.757V137.214H122.968V150.301H109.895V143.757ZM125.595 143.757V137.214H138.667V150.301H125.595V143.757ZM141.294 143.757V137.214H154.366V150.301H141.294V143.757ZM156.993 143.757V137.214H170.066V150.301H156.993V143.757ZM172.693 143.757V137.214H185.765V150.301H172.693V143.757ZM188.392 143.757V137.214H201.464V150.301H188.392V143.757ZM204.092 143.757V137.214H217.164V150.301H204.092V143.757ZM219.791 143.757V137.214H232.863V150.301H219.791V143.757ZM235.49 143.757V137.214H248.563V150.301H235.49V143.757ZM251.19 143.757V137.214H264.262V150.301H251.19V143.757ZM266.889 143.757V137.214H279.961V150.301H266.889V143.757ZM282.588 143.757V137.214H295.661V150.301H282.588V143.757ZM298.288 143.757V137.214H311.36V150.301H298.288V143.757ZM313.987 143.757V137.214H327.059V150.301H313.987V143.757ZM329.686 143.757V137.214H342.759V150.301H329.686V143.757ZM345.386 143.757V137.214H358.458V150.301H345.386V143.757ZM361.085 143.757V137.214H374.157V150.301H361.085V143.757ZM376.784 143.757V137.214H389.857V150.301H376.784V143.757ZM392.484 143.757V137.214H405.556V150.301H392.484V143.757ZM408.183 143.757V137.214H421.255V150.301H408.183V143.757ZM0 128.053V121.509H13.0723V134.596H0V128.053ZM15.6993 128.053V121.509H28.7717V134.596H15.6993V128.053ZM31.3987 128.053V121.509H44.471V134.596H31.3987V128.053ZM47.098 128.053V121.509H60.1704V134.596H47.098V128.053ZM62.7974 128.053V121.509H75.8697V134.596H62.7974V128.053ZM78.4967 128.053V121.509H91.5691V134.596H78.4967V128.053ZM94.1961 128.053V121.509H107.268V134.596H94.1961V128.053ZM109.895 128.053V121.509H122.968V134.596H109.895V128.053ZM125.595 128.053V121.509H138.667V134.596H125.595V128.053ZM141.294 128.053V121.509H154.366V134.596H141.294V128.053ZM156.993 128.053V121.509H170.066V134.596H156.993V128.053ZM172.693 128.053V121.509H185.765V134.596H172.693V128.053ZM188.392 128.053V121.509H201.464V134.596H188.392V128.053ZM204.092 128.053V121.509H217.164V134.596H204.092V128.053ZM219.791 128.053V121.509H232.863V134.596H219.791V128.053ZM235.49 128.053V121.509H248.563V134.596H235.49V128.053ZM251.19 128.053V121.509H264.262V134.596H251.19V128.053ZM266.889 128.053V121.509H279.961V134.596H266.889V128.053ZM282.588 128.053V121.509H295.661V134.596H282.588V128.053ZM298.288 128.053V121.509H311.36V134.596H298.288V128.053ZM313.987 128.053V121.509H327.059V134.596H313.987V128.053ZM329.686 128.053V121.509H342.759V134.596H329.686V128.053ZM345.386 128.053V121.509H358.458V134.596H345.386V128.053ZM361.085 128.053V121.509H374.157V134.596H361.085V128.053ZM376.784 128.053V121.509H389.857V134.596H376.784V128.053ZM392.484 128.053V121.509H405.556V134.596H392.484V128.053ZM408.183 128.053V121.509H421.255V134.596H408.183V128.053ZM425.969 128.053V123.598H434.868V132.507H425.969V128.053ZM0 112.335V105.792H13.0723V118.879H0V112.335ZM15.6993 112.335V105.792H28.7717V118.879H15.6993V112.335ZM31.3987 112.335V105.792H44.471V118.879H31.3987V112.335ZM47.098 112.335V105.792H60.1704V118.879H47.098V112.335ZM62.7974 112.335V105.792H75.8697V118.879H62.7974V112.335ZM78.4967 112.335V105.792H91.5691V118.879H78.4967V112.335ZM94.1961 112.335V105.792H107.268V118.879H94.1961V112.335ZM109.895 112.335V105.792H122.968V118.879H109.895V112.335ZM125.595 112.335V105.792H138.667V118.879H125.595V112.335ZM141.294 112.335V105.792H154.366V118.879H141.294V112.335ZM156.993 112.335V105.792H170.066V118.879H156.993V112.335ZM172.693 112.335V105.792H185.765V118.879H172.693V112.335ZM188.392 112.335V105.792H201.464V118.879H188.392V112.335ZM204.092 112.335V105.792H217.164V118.879H204.092V112.335ZM219.791 112.335V105.792H232.863V118.879H219.791V112.335ZM235.49 112.335V105.792H248.563V118.879H235.49V112.335ZM251.19 112.335V105.792H264.262V118.879H251.19V112.335ZM266.889 112.335V105.792H279.961V118.879H266.889V112.335ZM282.588 112.335V105.792H295.661V118.879H282.588V112.335ZM298.288 112.335V105.792H311.36V118.879H298.288V112.335ZM313.987 112.335V105.792H327.059V118.879H313.987V112.335ZM329.686 112.335V105.792H342.759V118.879H329.686V112.335ZM345.386 112.335V105.792H358.458V118.879H345.386V112.335ZM361.085 112.335V105.792H374.157V118.879H361.085V112.335ZM376.784 112.335V105.792H389.857V118.879H376.784V112.335ZM392.484 112.335V105.792H405.556V118.879H392.484V112.335ZM408.183 112.335V105.792H421.255V118.879H408.183V112.335ZM423.882 112.335V105.792H436.955V118.879H423.882V112.335ZM443.767 112.335V109.982H448.481V114.701H443.767V112.348V112.335ZM0 96.6308V90.0873H13.0723V103.174H0V96.6308ZM15.6993 96.6308V90.0873H28.7717V103.174H15.6993V96.6308ZM31.3987 96.6308V90.0873H44.471V103.174H31.3987V96.6308ZM47.098 96.6308V90.0873H60.1704V103.174H47.098V96.6308ZM62.7974 96.6308V90.0873H75.8697V103.174H62.7974V96.6308ZM78.4967 96.6308V90.0873H91.5691V103.174H78.4967V96.6308ZM94.1961 96.6308V90.0873H107.268V103.174H94.1961V96.6308ZM109.895 96.6308V90.0873H122.968V103.174H109.895V96.6308ZM125.595 96.6308V90.0873H138.667V103.174H125.595V96.6308ZM141.294 96.6308V90.0873H154.366V103.174H141.294V96.6308ZM156.993 96.6308V90.0873H170.066V103.174H156.993V96.6308ZM172.693 96.6308V90.0873H185.765V103.174H172.693V96.6308ZM188.392 96.6308V90.0873H201.464V103.174H188.392V96.6308ZM204.092 96.6308V90.0873H217.164V103.174H204.092V96.6308ZM219.791 96.6308V90.0873H232.863V103.174H219.791V96.6308ZM235.49 96.6308V90.0873H248.563V103.174H235.49V96.6308ZM251.19 96.6308V90.0873H264.262V103.174H251.19V96.6308ZM266.889 96.6308V90.0873H279.961V103.174H266.889V96.6308ZM282.588 96.6308V90.0873H295.661V103.174H282.588V96.6308ZM298.288 96.6308V90.0873H311.36V103.174H298.288V96.6308ZM313.987 96.6308V90.0873H327.059V103.174H313.987V96.6308ZM329.686 96.6308V90.0873H342.759V103.174H329.686V96.6308ZM345.386 96.6308V90.0873H358.458V103.174H345.386V96.6308ZM361.085 96.6308V90.0873H374.157V103.174H361.085V96.6308ZM376.784 96.6308V90.0873H389.857V103.174H376.784V96.6308ZM392.484 96.6308V90.0873H405.556V103.174H392.484V96.6308ZM408.183 96.6308V90.0873H421.255V103.174H408.183V96.6308ZM423.882 96.6308V90.0873H436.955V103.174H423.882V96.6308ZM441.668 96.6308V92.1762H450.568V101.085H441.668V96.6308ZM0 80.9137V74.3701H13.0723V87.4573H0V80.9137ZM15.6993 80.9137V74.3701H28.7717V87.4573H15.6993V80.9137ZM31.3987 80.9137V74.3701H44.471V87.4573H31.3987V80.9137ZM47.098 80.9137V74.3701H60.1704V87.4573H47.098V80.9137ZM62.7974 80.9137V74.3701H75.8697V87.4573H62.7974V80.9137ZM78.4967 80.9137V74.3701H91.5691V87.4573H78.4967V80.9137ZM94.1961 80.9137V74.3701H107.268V87.4573H94.1961V80.9137ZM109.895 80.9137V74.3701H122.968V87.4573H109.895V80.9137ZM125.595 80.9137V74.3701H138.667V87.4573H125.595V80.9137ZM141.294 80.9137V74.3701H154.366V87.4573H141.294V80.9137ZM156.993 80.9137V74.3701H170.066V87.4573H156.993V80.9137ZM172.693 80.9137V74.3701H185.765V87.4573H172.693V80.9137ZM188.392 80.9137V74.3701H201.464V87.4573H188.392V80.9137ZM204.092 80.9137V74.3701H217.164V87.4573H204.092V80.9137ZM219.791 80.9137V74.3701H232.863V87.4573H219.791V80.9137ZM235.49 80.9137V74.3701H248.563V87.4573H235.49V80.9137ZM251.19 80.9137V74.3701H264.262V87.4573H251.19V80.9137ZM266.889 80.9137V74.3701H279.961V87.4573H266.889V80.9137ZM282.588 80.9137V74.3701H295.661V87.4573H282.588V80.9137ZM298.288 80.9137V74.3701H311.36V87.4573H298.288V80.9137ZM313.987 80.9137V74.3701H327.059V87.4573H313.987V80.9137ZM329.686 80.9137V74.3701H342.759V87.4573H329.686V80.9137ZM345.386 80.9137V74.3701H358.458V87.4573H345.386V80.9137ZM361.085 80.9137V74.3701H374.157V87.4573H361.085V80.9137ZM376.784 80.9137V74.3701H389.857V87.4573H376.784V80.9137ZM392.484 80.9137V74.3701H405.556V87.4573H392.484V80.9137ZM408.183 80.9137V74.3701H421.255V87.4573H408.183V80.9137ZM428.068 80.9137V78.5605H432.782V83.2794H428.068V80.9263V80.9137ZM0 65.2091V58.6656H13.0723V71.7527H0V65.2091ZM15.6993 65.2091V58.6656H28.7717V71.7527H15.6993V65.2091ZM31.3987 65.2091V58.6656H44.471V71.7527H31.3987V65.2091ZM47.098 65.2091V58.6656H60.1704V71.7527H47.098V65.2091ZM62.7974 65.2091V58.6656H75.8697V71.7527H62.7974V65.2091ZM78.4967 65.2091V58.6656H91.5691V71.7527H78.4967V65.2091ZM94.1961 65.2091V58.6656H107.268V71.7527H94.1961V65.2091ZM109.895 65.2091V58.6656H122.968V71.7527H109.895V65.2091ZM125.595 65.2091V58.6656H138.667V71.7527H125.595V65.2091ZM141.294 65.2091V58.6656H154.366V71.7527H141.294V65.2091ZM156.993 65.2091V58.6656H170.066V71.7527H156.993V65.2091ZM172.693 65.2091V58.6656H185.765V71.7527H172.693V65.2091ZM188.392 65.2091V58.6656H201.464V71.7527H188.392V65.2091ZM204.092 65.2091V58.6656H217.164V71.7527H204.092V65.2091ZM219.791 65.2091V58.6656H232.863V71.7527H219.791V65.2091ZM235.49 65.2091V58.6656H248.563V71.7527H235.49V65.2091ZM251.19 65.2091V58.6656H264.262V71.7527H251.19V65.2091ZM266.889 65.2091V58.6656H279.961V71.7527H266.889V65.2091ZM282.588 65.2091V58.6656H295.661V71.7527H282.588V65.2091ZM298.288 65.2091V58.6656H311.36V71.7527H298.288V65.2091ZM313.987 65.2091V58.6656H327.059V71.7527H313.987V65.2091ZM329.686 65.2091V58.6656H342.759V71.7527H329.686V65.2091ZM345.386 65.2091V58.6656H358.458V71.7527H345.386V65.2091ZM361.085 65.2091V58.6656H374.157V71.7527H361.085V65.2091ZM376.784 65.2091V58.6656H389.857V71.7527H376.784V65.2091ZM392.484 65.2091V58.6656H405.556V71.7527H392.484V65.2091ZM408.183 65.2091V58.6656H421.255V71.7527H408.183V65.2091ZM15.6993 49.492V42.9484H28.7717V56.0356H15.6993V49.492ZM31.3987 49.492V42.9484H44.471V56.0356H31.3987V49.492ZM47.098 49.492V42.9484H60.1704V56.0356H47.098V49.492ZM62.7974 49.492V42.9484H75.8697V56.0356H62.7974V49.492ZM78.4967 49.492V42.9484H91.5691V56.0356H78.4967V49.492ZM94.1961 49.492V42.9484H107.268V56.0356H94.1961V49.492ZM109.895 49.492V42.9484H122.968V56.0356H109.895V49.492ZM125.595 49.492V42.9484H138.667V56.0356H125.595V49.492ZM141.294 49.492V42.9484H154.366V56.0356H141.294V49.492ZM156.993 49.492V42.9484H170.066V56.0356H156.993V49.492ZM172.693 49.492V42.9484H185.765V56.0356H172.693V49.492ZM188.392 49.492V42.9484H201.464V56.0356H188.392V49.492ZM204.092 49.492V42.9484H217.164V56.0356H204.092V49.492ZM219.791 49.492V42.9484H232.863V56.0356H219.791V49.492ZM235.49 49.492V42.9484H248.563V56.0356H235.49V49.492ZM251.19 49.492V42.9484H264.262V56.0356H251.19V49.492ZM266.889 49.492V42.9484H279.961V56.0356H266.889V49.492ZM282.588 49.492V42.9484H295.661V56.0356H282.588V49.492ZM298.288 49.492V42.9484H311.36V56.0356H298.288V49.492ZM313.987 49.492V42.9484H327.059V56.0356H313.987V49.492ZM329.686 49.492V42.9484H342.759V56.0356H329.686V49.492ZM345.386 49.492V42.9484H358.458V56.0356H345.386V49.492ZM361.085 49.492V42.9484H374.157V56.0356H361.085V49.492ZM376.784 49.492V42.9484H389.857V56.0356H376.784V49.492ZM392.484 49.492V42.9484H405.556V56.0356H392.484V49.492ZM2.08654 49.492V45.0373H10.9858V53.9467H2.08654V49.492ZM412.218 49.492V47.1388H416.931V51.8577H412.218V49.5046V49.492ZM15.6993 33.7749V27.2313H28.7717V40.3184H15.6993V33.7749ZM31.3987 33.7749V27.2313H44.471V40.3184H31.3987V33.7749ZM47.098 33.7749V27.2313H60.1704V40.3184H47.098V33.7749ZM64.8839 33.7749V29.3202H73.7832V38.2295H64.8839V33.7749ZM80.5833 33.7749V29.3202H89.4825V38.2295H80.5833V33.7749ZM96.2826 33.7749V29.3202H105.182V38.2295H96.2826V33.7749ZM111.982 33.7749V29.3202H120.881V38.2295H111.982V33.7749ZM4.22336 33.7749V31.4217H8.93694V36.1406H4.22336V33.7874V33.7749ZM129.768 33.7749V31.4217H134.481V36.1406H129.768V33.7874V33.7749ZM145.467 33.7749V31.4217H150.181V36.1406H145.467V33.7874V33.7749ZM161.167 33.7749V31.4217H165.88V36.1406H161.167V33.7874V33.7749ZM176.866 33.7749V31.4217H181.579V36.1406H176.866V33.7874V33.7749ZM192.565 33.7749V31.4217H197.279V36.1406H192.565V33.7874V33.7749ZM208.265 33.7749V31.4217H212.978V36.1406H208.265V33.7874V33.7749ZM223.964 33.7749V31.4217H228.678V36.1406H223.964V33.7874V33.7749ZM239.663 33.7749V31.4217H244.377V36.1406H239.663V33.7874V33.7749ZM255.363 33.7749V31.4217H260.076V36.1406H255.363V33.7874V33.7749ZM271.062 33.7749V31.4217H275.776V36.1406H271.062V33.7874V33.7749ZM286.761 33.7749V31.4217H291.475V36.1406H286.761V33.7874V33.7749ZM302.461 33.7749V31.4217H307.174V36.1406H302.461V33.7874V33.7749ZM318.16 33.7749V31.4217H322.874V36.1406H318.16V33.7874V33.7749ZM333.859 33.7749V31.4217H338.573V36.1406H333.859V33.7874V33.7749ZM349.559 33.7749V31.4217H354.272V36.1406H349.559V33.7874V33.7749ZM365.258 33.7749V31.4217H369.972V36.1406H365.258V33.7874V33.7749ZM380.957 33.7749V31.4217H385.671V36.1406H380.957V33.7874V33.7749ZM396.657 33.7749V31.4217H401.37V36.1406H396.657V33.7874V33.7749ZM47.0855 18.0703V11.5267H60.1578V24.6139H47.0855V18.0703ZM35.5718 18.0703V15.7171H40.2854V20.4361H35.5718V18.0829V18.0703ZM66.9579 18.0703V15.7171H71.6715V20.4361H66.9579V18.0829V18.0703ZM66.9579 2.35317V0H71.6715V4.71892H66.9579V2.36575V2.35317Z" fill="#D4DFFC"/>
</svg>
